# xmcd CD database file
#
# Track frame offsets:
#	150
#	17954
#	38364
#	57187
#	72351
#	91571
#	108374
#	130305
#	153862
#	172500
#
# Disc length: 2539 seconds
#
# Revision: 2
# Processed by: cddbd v1.5.2PL0 Copyright (c) Steve Scherf et al.
# Submitted via: CDex 1.70beta3
#
DISCID=6a09e90a
DTITLE=John Hall Band - All Of The Above
DYEAR=1981
DGENRE=Rock
TTITLE0=You Sure Fooled Me
TTITLE1=Crazy (Keep On Falling)
TTITLE2=Can't Stand To See You Go
TTITLE3=Star In Your Sky
TTITLE4=Somebody's Calling
TTITLE5=What You Do To Me
TTITLE6=Earth Out Tonight
TTITLE7=The Touch
TTITLE8=Don't Hurt Me
TTITLE9=Clouds
EXTD=YEAR: 1981
EXTT0=
EXTT1=
EXTT2=
EXTT3=
EXTT4=
EXTT5=
EXTT6=
EXTT7=
EXTT8=
EXTT9=
PLAYORDER=
